<?xml version="1.0" encoding="UTF-8" standalone="no"?>
<svg
   xmlns:dc="http://purl.org/dc/elements/1.1/"
   xmlns:cc="http://creativecommons.org/ns#"
   xmlns:rdf="http://www.w3.org/1999/02/22-rdf-syntax-ns#"
   xmlns:svg="http://www.w3.org/2000/svg"
   xmlns="http://www.w3.org/2000/svg"
   xmlns:sodipodi="http://sodipodi.sourceforge.net/DTD/sodipodi-0.dtd"
   xmlns:inkscape="http://www.inkscape.org/namespaces/inkscape"
   version="1.1"
   id="svg8"
   sodipodi:docname="anaconda.svg"
   inkscape:version="0.92.5 (2060ec1f9f, 2020-04-08)">
  <g
     id="g6"
     transform="scale(1.6,1.6)">
     <path style="fill:#ffffff;" d="M9.66.3A.46.46 0 009.2 0h-.27a.49.49 0 00-.46.3L.05 18.52a.48.48 0 00.46.7h2.36a.8.8 0 00.78-.54L5 15.75h8.09l1.33 2.93a.78.78 0 00.79.54h2.35a.48.48 0 00.46-.7zM6.31 12.75L9 6.79l2.71 6zM35.47.27H33a.52.52 0 00-.52.52V12L21.18 0h-.68a.51.51 0 00-.5.49V18.7a.53.53 0 00.51.52H23a.52.52 0 00.52-.52V7.07l11.3 12.42h.65A.51.51 0 0036 19V.79a.53.53 0 00-.53-.52zM47.63.3a.46.46 0 00-.46-.3h-.27a.49.49 0 00-.46.3L38 18.52a.48.48 0 00.46.7h2.36a.81.81 0 00.78-.54l1.4-2.93h8l1.33 2.93a.77.77 0 00.78.54h2.36a.48.48 0 00.46-.7zm-3.36 12.45l2.66-6H47l2.71 6zM70.77 14.4a.51.51 0 00-.68 0A6.51 6.51 0 0166 15.94a6.13 6.13 0 01-6.07-6.25 6.15 6.15 0 016-6.31A6.42 6.42 0 0170.09 5a.43.43 0 00.68 0l1.65-1.7a.51.51 0 000-.76A9.17 9.17 0 0065.84 0a9.75 9.75 0 100 19.49 9.28 9.28 0 006.58-2.63.51.51 0 000-.73zM83.56 0a9.7 9.7 0 00-9.72 9.77 9.73 9.73 0 0019.46 0A9.73 9.73 0 0083.56 0zm0 16a6.23 6.23 0 116.22-6.2 6.22 6.22 0 01-6.22 6.2zM111.75.27h-2.49a.52.52 0 00-.52.52V12L97.45 0h-.67a.52.52 0 00-.52.49V18.7a.54.54 0 00.52.52h2.46a.52.52 0 00.52-.52V7.07l11.34 12.42h.65a.51.51 0 00.51-.49V.79a.53.53 0 00-.51-.52zM122.61.27h-6.42a.51.51 0 00-.49.52V18.7a.51.51 0 00.49.52h6.42a9.48 9.48 0 100-18.95zm-.33 15.65h-3.09V3.55h3.09a6 6 0 016.09 6.17 6 6 0 01-6.09 6.2zM150.2 18.52L141.87.3a.46.46 0 00-.46-.3h-.27a.48.48 0 00-.46.3l-8.42 18.22a.48.48 0 00.46.7h2.35a.82.82 0 00.79-.54l1.32-2.93h8.1l1.32 2.93a.78.78 0 00.79.54h2.35a.47.47 0 00.46-.7zm-11.69-5.77l2.65-6h.08l2.71 6zM153.58 18.92h.17a.08.08 0 00.08-.08v-.5h.28l.22.52a.09.09 0 00.08.06h.2a.08.08 0 00.07-.12c-.07-.16-.15-.33-.23-.49a.49.49 0 00.34-.49.52.52 0 00-.55-.52h-.66a.08.08 0 00-.08.08v1.46a.08.08 0 00.08.08zm.24-1.31h.4a.21.21 0 01.22.22.21.21 0 01-.22.21h-.4z"></path>
     <path style="fill:#ffffff;" d="M154.07 19.71a1.6 1.6 0 100-3.19 1.6 1.6 0 000 3.19zm0-2.88a1.29 1.29 0 110 2.57 1.29 1.29 0 110-2.57z"></path>
  </g>
</svg>
