<?xml version="1.0" encoding="UTF-8" standalone="no"?>
<svg
   xmlns:dc="http://purl.org/dc/elements/1.1/"
   xmlns:cc="http://creativecommons.org/ns#"
   xmlns:rdf="http://www.w3.org/1999/02/22-rdf-syntax-ns#"
   xmlns:svg="http://www.w3.org/2000/svg"
   xmlns="http://www.w3.org/2000/svg"
   xmlns:sodipodi="http://sodipodi.sourceforge.net/DTD/sodipodi-0.dtd"
   xmlns:inkscape="http://www.inkscape.org/namespaces/inkscape"
   version="1.1"
   id="svg8"
   sodipodi:docname="logo.svg"
   inkscape:version="0.92.5 (2060ec1f9f, 2020-04-08)">
  <g
     id="g6"
     transform="scale(1.6,1.6)">
    <path
       style="fill:#ffffff"
       d="M 6.21,25.57 V 25.45 A 24.51,24.51 0 0 1 6.44,22.58 V 22.49 H 6.35 A 22.7,22.7 0 0 1 3.77,21.24 L 3.66,21.18 3.61,21.29 a 22,22 0 0 0 -1.37,3.46 v 0.11 h 0.12 a 22.54,22.54 0 0 0 3.75,0.7 z M 8.79,8.63 A 19.61,19.61 0 0 0 6.62,8.78 C 6.71,9.51 6.84,10.23 7,10.95 A 11.71,11.71 0 0 1 8.79,8.63 Z M 6.21,26.44 v -0.1 H 6.11 A 22.65,22.65 0 0 1 2.9,25.8 l -0.28,-0.06 0.16,0.24 a 16.73,16.73 0 0 0 3.49,3.82 l 0.22,0.18 V 29.7 A 31.51,31.51 0 0 1 6.21,26.44 Z M 11.4,0.9 A 17,17 0 0 0 7.74,2.68 21.64,21.64 0 0 1 10.27,3.28 25.89,25.89 0 0 1 11.4,0.9 Z M 16.81,0 a 17,17 0 0 0 -1.9,0.11 24.44,24.44 0 0 1 2.53,2 l 0.67,0.61 -0.65,0.63 a 21,21 0 0 0 -1.57,1.68 l -0.25,0.3 a 11.9,11.9 0 0 1 1.2,-0.07 11.38,11.38 0 1 1 -5.98,21.14 22,22 0 0 1 -2.57,0.15 h -1.2 a 30.49,30.49 0 0 0 0.37,4 A 16.7,16.7 0 1 0 16.81,0 Z"
       id="path2"
       inkscape:connector-curvature="0" />
    <path
       style="fill:#ffffff"
       d="m 14.6,4 q 0.49,-0.6 1,-1.14 A 21,21 0 0 0 13.15,1 22.66,22.66 0 0 0 11.76,3.79 22.54,22.54 0 0 1 14,4.71 9.74,9.74 0 0 1 14.6,4 Z m -11.34,9.48 0.06,0.1 0.1,-0.07 A 22.76,22.76 0 0 1 5.84,12 L 5.92,11.95 V 11.87 A 23.54,23.54 0 0 1 5.35,8.95 V 8.82 H 5.23 a 21.37,21.37 0 0 0 -3.63,1 H 1.49 v 0.11 a 23.87,23.87 0 0 0 1.77,3.55 z m -0.19,1.62 -0.1,0.07 a 23.13,23.13 0 0 0 -2.53,2.42 l -0.08,0.08 0.09,0.08 a 21.56,21.56 0 0 0 2.78,2.07 l 0.1,0.07 0.06,-0.11 A 23.36,23.36 0 0 1 4.86,17.49 V 17.42 L 4.8,17.35 A 23.71,23.71 0 0 1 3.14,15.2 Z M 9.62,25.63 H 9.91 L 9.68,25.45 A 11.18,11.18 0 0 1 7.39,22.89 L 7.21,22.81 v 0.16 A 24.08,24.08 0 0 0 7,25.52 v 0.11 h 1.3 c 0.4,0 0.87,0.02 1.32,0 z M 9.06,7.18 a 23.19,23.19 0 0 1 0.67,-2.44 23,23 0 0 0 -3.2,-0.67 20.89,20.89 0 0 0 0,3.26 C 7.35,7.24 8.2,7.19 9.06,7.18 Z M 10.67,7.12 A 11.52,11.52 0 0 1 13,6 C 12.41,5.72 11.82,5.47 11.2,5.24 11,5.85 10.83,6.48 10.67,7.12 Z M 2.9,20.69 2.81,20.63 A 24,24 0 0 1 0.33,18.84 L 0.11,18.66 v 0.28 a 16.41,16.41 0 0 0 1.32,4.64 l 0.11,0.26 0.1,-0.27 A 22.63,22.63 0 0 1 2.82,20.78 Z M 5.05,4.84 A 16.66,16.66 0 0 0 2.46,8.16 23.73,23.73 0 0 1 5.08,7.54 24.27,24.27 0 0 1 5.05,4.84 Z m 0.5,11.71 v -0.29 a 11.41,11.41 0 0 1 0.51,-3 L 6.16,13 5.91,13.14 c -0.65,0.38 -1.3,0.8 -1.92,1.24 l -0.09,0.07 0.07,0.09 c 0.43,0.61 0.9,1.21 1.39,1.78 z m 0.11,1.73 v -0.29 l -0.17,0.24 a 21.44,21.44 0 0 0 -1.28,2 l -0.06,0.1 0.1,0.06 a 23.18,23.18 0 0 0 2.18,1.07 L 6.7,21.58 6.58,21.31 A 11.22,11.22 0 0 1 5.66,18.28 Z m -3.25,-4 0.08,-0.06 -0.06,-0.09 A 22.58,22.58 0 0 1 1,11.52 L 0.9,11.25 0.81,11.53 A 16.53,16.53 0 0 0 0,16.22 v 0.29 L 0.2,16.3 a 24.71,24.71 0 0 1 2.21,-2.02 z"
       id="path4"
       inkscape:connector-curvature="0" />
  </g>
</svg>
